PathFileType	4	(X/Y/Z)	C:\Users\WrightLab\Desktop\Jo\P5V21.trc
DataRate	CameraRate	NumFrames	NumMarkers	Units	OrigDataRate	OrigDataStartFrame	OrigNumFrames
100.00	100.00	       8	19	mm	100.00	100	       399
Frame#	Time	Headset_Front			Headset_Back			Headset_Left			Headset_Right			Left_Shoulder			Right_Shoulder			Sternum			C7			Left Elbow			Right Elbow			Left Wrist			Right Wrist			Left ASIS			Right ASIS			S2			Left Knee			Right Knee			Left Ankle			Right Ankle			
		X1	Y1	Z1	X2	Y2	Z2	X3	Y3	Z3	X4	Y4	Z4	X5	Y5	Z5	X6	Y6	Z6	X7	Y7	Z7	X8	Y8	Z8	X9	Y9	Z9	X10	Y10	Z10	X11	Y11	Z11	X12	Y12	Z12	X13	Y13	Z13	X14	Y14	Z14	X15	Y15	Z15	X16	Y16	Z16	X17	Y17	Z17	X18	Y18	Z18	X19	Y19	Z19	

100	0.990	25.46610	1380.12500	-136.97906	-72.53769	1484.20386	-85.72658				47.70005	1536.08826	-278.50208	-60.86515	1490.80481	-481.65552	-168.12164	1415.27405	-129.61772	-99.84155	1265.28284	-308.35159	-252.15523	1517.98291	-321.06662	-1.57960	1350.63184	-470.47824	-81.46394	1210.95020	29.51242	-71.56498	1255.46155	-628.60303	149.51643	1126.81885	115.18067	-62.85390	914.96735	-482.62546	-170.61420	899.19659	-202.72098	-359.56348	1002.49988	-478.26712	-43.19385	493.05341	-505.94299	-265.95020	514.94006	-163.25685	-100.20751	87.01176	-536.74017	-338.45273	100.43922	-188.49442	
101	1.000	23.94412	1380.92102	-134.25757	-73.43523	1484.64587	-82.28019				46.83852	1537.03149	-275.47778	-62.01405	1491.40356	-479.46216	-168.56458	1415.23193	-126.78554	-100.90607	1265.37378	-303.97491	-252.78975	1518.62512	-316.96634	-3.10169	1350.83276	-466.23975	-83.22554	1211.26624	33.30151	-73.12663	1255.19116	-624.40802	147.11398	1126.45593	119.05627	-64.62276	914.62531	-478.28787	-171.40503	899.97485	-198.82246	-361.47327	1003.05200	-473.76535	-45.85794	493.33527	-501.66928	-267.14999	514.60645	-161.02570	-100.26591	87.40441	-536.35480	-338.47604	100.41934	-188.43056	
102	1.010	23.83994	1381.61096	-130.66066	-74.24627	1485.04968	-78.85658				46.11428	1536.99207	-271.94516	-63.14500	1491.43457	-475.72134	-170.89192	1416.14441	-123.35732	-101.64043	1266.12317	-299.33087	-253.65248	1518.78845	-312.79050	-4.86685	1350.39429	-461.79358	-85.55580	1210.95227	36.16766	-75.06747	1254.50598	-619.62225	143.98708	1126.20654	122.44036	-66.11358	915.09186	-473.74173	-171.24910	901.11292	-193.28001	-362.85400	1004.11914	-468.67749	-48.27788	493.04407	-496.48953	-266.91898	513.86786	-157.50630	-101.07848	88.40876	-535.89423	-338.44931	100.52117	-188.00797	
103	1.020	22.15994	1382.28491	-127.85948	-74.88480	1485.45337	-75.58582				45.13820	1537.41675	-268.15515	-64.07008	1491.78528	-472.20724	-171.32396	1416.92285	-120.07754	-102.93456	1267.12805	-295.61075	-255.02022	1519.64087	-310.09351	-6.13048	1350.68872	-458.45920	-88.80056	1210.66089	39.44925	-76.09955	1253.91614	-616.05005	140.59500	1126.05750	125.44723	-66.90826	914.86963	-468.30176	-171.52536	901.65741	-189.27036	-364.44315	1003.83533	-462.99786	-51.23524	492.85730	-491.56854	-267.99487	512.49188	-155.92723	-101.59139	89.82665	-535.49261	-338.64548	100.08788	-186.81943	
104	1.030	21.14035	1382.60681	-123.58243	-76.93802	1486.72363	-72.01326				43.71019	1537.49255	-264.86053	-64.83409	1491.70703	-469.41086	-173.93254	1416.22791	-118.51031	-104.39527	1267.06848	-291.52039	-255.25613	1520.29944	-306.51010	-7.63172	1350.99390	-455.17136	-92.02912	1210.27759	42.83406	-76.73919	1253.70129	-611.66321	136.97763	1126.23694	128.30708	-68.49507	914.84186	-464.41418	-172.46071	902.14960	-184.76089	-365.82434	1004.05389	-458.43118	-53.58849	492.32016	-485.26923	-269.12003	511.74225	-154.08997	-102.09234	91.01188	-534.64587	-338.83163	99.84607	-186.45644	
105	1.040	18.97452	1383.96265	-120.53097	-77.83199	1487.57129	-69.20836				42.66016	1538.55225	-261.64325	-65.40865	1492.44678	-467.18246	-174.96284	1418.02954	-114.22233	-103.48260	1268.37573	-287.05069	-256.79294	1521.16602	-304.19666	-8.38871	1351.10376	-451.34213	-96.93494	1209.91882	46.25057	-77.98074	1252.70117	-607.54529	132.18771	1125.69043	130.90433	-69.55386	914.70343	-458.60089	-173.60381	902.71759	-179.50400	-366.99332	1004.43555	-453.49387	-56.13395	492.58789	-479.95187	-270.48309	510.48895	-153.38239	-102.25640	93.65155	-534.04230	-339.09927	99.66110	-184.98212	
106	1.050	16.57855	1384.07910	-116.94379	-79.98599	1488.81543	-66.42403				41.20760	1538.42480	-258.10626	-66.35084	1491.73352	-463.91013	-177.45547	1417.71716	-111.29061	-105.18930	1268.97656	-285.02979	-258.19479	1521.62402	-302.62341	-9.07951	1351.05005	-447.54272	-101.26287	1209.31311	49.04006	-78.52342	1252.17017	-603.60895	128.09447	1126.41260	133.51895	-70.87350	914.44574	-454.33102	-174.72826	903.35034	-175.27133	-368.02356	1004.17761	-448.59760	-59.10101	491.84329	-472.35175	-272.17072	509.55206	-149.78346	-102.36442	94.66162	-532.66132	-339.09998	99.26125	-184.54123	
107	1.060	16.01795	1385.56458	-113.16493	-81.60479	1489.71973	-63.86096				39.99277	1539.97791	-256.02768	-66.97354	1491.87183	-461.40790	-178.35677	1418.67456	-107.53616	-106.85151	1269.64880	-282.08356	-258.59265	1522.33362	-299.97562	-10.08602	1351.59570	-443.82932	-106.85420	1209.19067	52.06528	-79.19564	1251.93713	-600.57416	123.32759	1126.21094	134.22739	-71.65130	913.95898	-448.67239	-175.71231	904.08386	-169.77660	-368.84177	1004.26550	-444.16428	-61.56685	491.42264	-464.36295	-273.17422	508.75497	-148.05685	-102.25156	96.96938	-531.62073	-339.04007	99.02286	-184.36629	
